<?xml version="1.0"?>
<svg version="1.1" xmlns="http://www.w3.org/2000/svg" width="800" height="200" style="border: dashed 2px #aaa"><path fill="#000222" d="M50.2,93.6l-34.688,0l0,3.904l15.744,0l0,41.024l3.968,0l0-41.024l14.976,0l0-3.904z M77.70976,115.936l4.8,0q4.864,0,8.064-3.2t3.2-8.064q0-4.288-3.2-7.68q-3.392-3.52-8.064-3.52l-20.032,0l-3.968,0l0,44.928l3.968,0l0-22.464l10.432,0l13.632,22.464l4.8,0z M62.47776,111.968l0-14.464l20.032,0q2.944,0,5.184,2.112q2.112,2.112,2.112,5.056q0,3.072-2.112,5.184q-2.24,2.112-5.184,2.112l-20.032,0z M106.88352,126.112q0-3.072,2.176-5.568q2.176-2.624,5.248-2.624l0.832,0l11.968,0l0-3.968l-11.968,0l-0.832,0q-3.264-0.64-5.344-2.816t-2.08-5.184q0-3.776,2.208-5.984t6.048-2.208l21.76,0l0-4.032l-21.76,0q-4.928,0-8.576,3.648q-3.648,3.52-3.648,8.576q0,3.2,1.216,5.824t3.584,3.776q-2.368,1.728-3.584,4.544t-1.216,6.016q0,4.992,3.648,8.512q3.712,3.712,8.576,3.712l21.76,0l0-4.224l-21.76,0q-3.84,0-6.048-2.176t-2.208-5.824z M144.95328,138.4l3.968,0l0-27.136q0-5.376,4.096-9.6q4.096-4.096,9.472-4.096t9.6,4.096q4.096,4.224,4.096,9.6l0,27.136l3.968,0l0-27.136q0-7.296-5.184-12.48t-12.48-5.184q-7.168,0-12.352,5.184t-5.184,12.48l0,27.136z M203.95104,93.536l-9.792,0l-2.432,0l-1.6,0l0,44.864l1.6,0l2.432,0l9.792,0q9.344,0,16-6.528q6.848-6.72,6.848-16.32q0-9.088-6.848-15.616q-6.72-6.4-16-6.4z M203.95104,134.368l-9.792,0l0-36.672l9.792,0q8,0,13.44,5.248q5.376,5.248,5.376,12.608q0,8-5.376,13.376q-5.44,5.44-13.44,5.44z M236.1328,138.528l31.296,0l0-3.264l-27.328,0l0-41.664l-3.968,0l0,44.928z M308.76256,93.6l-3.968,0l0,4.736q0,5.888-4.096,9.856q-4.032,3.84-9.6,3.84q-5.952,0-9.792-3.84t-3.84-9.856l0-4.736l-3.968,0l0,4.736q0,7.168,4.352,12.16q4.288,5.056,10.88,5.504l0,22.464l4.032,0l0-22.464q6.72-0.512,11.328-5.504q4.672-4.992,4.672-12.16l0-4.736z"/><path fill="#" d=""/></svg>
